<?xml version="1.0" standalone="no"?>
<!DOCTYPE svg PUBLIC "-//W3C//DTD SVG 20010904//EN"
 "http://www.w3.org/TR/2001/REC-SVG-20010904/DTD/svg10.dtd">
<svg version="1.0" xmlns="http://www.w3.org/2000/svg"
 width="225.000000pt" height="225.000000pt" viewBox="0 0 225.000000 225.000000"
 preserveAspectRatio="xMidYMid meet">

<g transform="translate(0.000000,225.000000) scale(0.100000,-0.100000)"
fill="#000000" stroke="none">
<path d="M1223 2184 c-33 -72 -37 -113 -19 -183 29 -115 108 -210 216 -260 48
-23 68 -26 160 -26 88 0 111 4 145 22 45 24 114 92 80 78 -158 -62 -308 -30
-437 93 -78 74 -109 140 -117 244 l-6 82 -22 -50z"/>
<path d="M880 2098 c-42 -68 -58 -115 -66 -192 -32 -316 262 -626 596 -626
198 0 381 96 459 241 l24 44 -34 -31 c-45 -42 -131 -88 -198 -108 -70 -20
-196 -20 -275 0 -140 36 -310 152 -384 263 -74 111 -86 156 -87 319 0 78 -1
142 -2 142 -1 0 -16 -23 -33 -52z"/>
<path d="M482 1974 c-73 -89 -122 -230 -122 -355 0 -378 304 -735 690 -809 79
-16 254 -14 336 3 157 33 309 133 411 271 42 57 58 92 27 62 -8 -9 -36 -30
-60 -47 -217 -149 -545 -159 -791 -24 -312 171 -472 413 -473 715 0 47 5 114
10 149 6 35 9 65 7 68 -3 2 -18 -12 -35 -33z"/>
<path d="M530 601 c-78 -24 -121 -66 -161 -157 -30 -67 -32 -185 -4 -231 32
-55 64 -63 237 -63 l155 0 10 45 c10 44 10 45 -14 45 -17 0 -23 4 -20 14 51
132 59 225 24 277 -42 63 -144 95 -227 70z m125 -112 c25 -24 24 -63 -4 -166
l-23 -83 -65 0 c-55 0 -67 4 -88 25 -14 13 -25 32 -25 42 0 32 30 137 46 161
33 51 116 62 159 21z"/>
<path d="M2010 449 l-75 -111 -9 31 c-9 30 -11 31 -64 31 -39 0 -53 -3 -49
-12 2 -7 13 -45 23 -85 15 -58 16 -80 8 -113 l-11 -40 51 0 51 1 28 62 c15 35
68 114 116 177 49 62 96 126 106 142 l16 28 -58 0 -58 0 -75 -111z"/>
<path d="M1317 505 c-76 -27 -107 -71 -131 -187 -29 -141 -1 -168 177 -168
l115 0 6 31 c3 17 6 35 6 40 0 5 -26 9 -57 10 -32 0 -78 4 -103 7 -40 6 -45
10 -48 35 l-3 27 120 0 119 0 8 67 c8 80 -4 109 -56 135 -41 21 -100 22 -153
3z m101 -87 c7 -7 12 -20 12 -30 0 -15 -9 -18 -65 -18 -50 0 -65 3 -65 14 0
36 90 62 118 34z"/>
<path d="M226 493 c-2 -10 -7 -28 -11 -40 -6 -22 -3 -23 44 -23 41 0 51 3 55
20 3 11 9 29 12 40 5 18 1 20 -45 20 -39 0 -51 -4 -55 -17z"/>
<path d="M841 403 c-27 -136 -27 -193 -2 -224 18 -22 27 -24 139 -27 109 -3
121 -2 126 15 3 10 19 83 36 163 17 80 33 153 36 163 5 15 -2 17 -43 17 l-49
0 -28 -135 -29 -135 -55 0 -55 0 6 68 c4 37 13 97 21 135 l14 67 -48 0 -47 0
-22 -107z"/>
<path d="M1581 363 c-17 -82 -34 -163 -37 -180 l-6 -33 45 0 c52 0 47 -9 77
135 12 55 24 108 26 118 5 15 19 17 115 17 61 0 109 4 109 9 0 19 -21 66 -33
73 -7 4 -69 8 -138 8 l-126 0 -32 -147z"/>
<path d="M199 373 c-6 -15 -17 -63 -25 -105 -17 -92 -40 -159 -57 -170 -7 -4
-22 -8 -34 -8 -13 0 -23 -6 -23 -14 0 -7 -3 -28 -6 -45 l-6 -31 44 0 c69 0
106 17 127 59 18 34 81 289 81 325 0 12 -10 16 -45 16 -40 0 -47 -3 -56 -27z"/>
</g>
</svg>
